<svg height='100px' width='100px'  fill="#000000" xmlns="http://www.w3.org/2000/svg" viewBox="0 0 64 64" x="0px" y="0px"><g><rect x="37" y="12" width="2" height="2"></rect><path d="M55,4H33V18H55ZM53,16H35V6H53Z"></path><circle cx="55" cy="55" r="1"></circle><rect x="41" y="12" width="2" height="2"></rect><rect x="34" y="46" width="6" height="2"></rect><rect x="37" y="8" width="2" height="2"></rect><rect x="41" y="8" width="2" height="2"></rect><rect x="25" y="8" width="2" height="2"></rect><rect x="13" y="12" width="2" height="2"></rect><rect x="17" y="12" width="2" height="2"></rect><rect x="17" y="8" width="2" height="2"></rect><rect x="21" y="12" width="2" height="2"></rect><rect x="21" y="8" width="2" height="2"></rect><path d="M31,4H9V18H31ZM29,16H11V6H29Z"></path><rect x="4" y="4" width="3" height="14"></rect><rect x="13" y="8" width="2" height="2"></rect><circle cx="55" cy="47" r="1"></circle><rect x="34" y="54" width="2" height="2"></rect><rect x="42" y="54" width="2" height="2"></rect><path d="M9,36h.586l5.707-5.707,1.414,1.414L12.414,36H23a1,1,0,0,0,1-1V29.414l-4.293,4.293-1.414-1.414L24,26.586V25a1,1,0,0,0-1-1H19.414l-6.707,6.707-1.414-1.414L16.586,24H9a1,1,0,0,0-1,1V35A1,1,0,0,0,9,36Zm9.293-8.707,1.414,1.414-2,2-1.414-1.414Z"></path><path d="M41,36h3.586l6.707-6.707,1.414,1.414L47.414,36H55a1,1,0,0,0,1-1V25a1,1,0,0,0-1-1h-.586l-6.707,6.707-1.414-1.414L51.586,24H41a1,1,0,0,0-1,1V35A1,1,0,0,0,41,36Zm4.293-5.707,1.414,1.414-2,2-1.414-1.414Z"></path><path d="M4,60H60V42H4ZM55,44a3,3,0,1,1-3,3A3,3,0,0,1,55,44Zm0,8a3,3,0,1,1-3,3A3,3,0,0,1,55,52Zm-7-8h2v2H48Zm0,4h2v2H48Zm-4-4h2v2H44Zm0,4h2v2H44ZM32,44H42v6H32Zm0,8H50v6H32ZM6,44H30V58H6Z"></path><rect x="57" y="4" width="3" height="14"></rect><path d="M4,40H60V20H4ZM38,25a3,3,0,0,1,3-3H55a3,3,0,0,1,3,3V35a3,3,0,0,1-3,3H41a3,3,0,0,1-3-3Zm-5,0a1,1,0,0,1,.293-.707l2-2,1.414,1.414L35,25.414v9.172l1.707,1.707-1.414,1.414-2-2A1,1,0,0,1,33,35Zm-5.707-1.293,1.414-1.414,2,2A1,1,0,0,1,31,25V35a1,1,0,0,1-.293.707l-2,2-1.414-1.414L29,34.586V25.414ZM6,25a3,3,0,0,1,3-3H23a3,3,0,0,1,3,3V35a3,3,0,0,1-3,3H9a3,3,0,0,1-3-3Z"></path><rect x="38" y="54" width="2" height="2"></rect><rect x="49" y="8" width="2" height="2"></rect><path d="M8,56H28V46H8Zm13-4h3V50h2v4H21ZM10,48h7v2H12v4H10Z"></path><rect x="45" y="8" width="2" height="2"></rect><rect x="45" y="12" width="2" height="2"></rect><rect x="46" y="54" width="2" height="2"></rect><rect x="49" y="12" width="2" height="2"></rect><rect x="25" y="12" width="2" height="2"></rect></g></svg>