<svg width="690" height="690" viewBox="0 0 690 690" fill="none" xmlns="http://www.w3.org/2000/svg">
<path d="M428.453 104.875H404.484V128.844H428.453V104.875Z" fill="#FFC107"/>
<path d="M620.203 9H356.547V176.781H620.203V9ZM596.234 152.812H380.516V32.9688H596.234V152.812Z" fill="#006064"/>
<path d="M620.203 632.188C626.822 632.188 632.188 626.822 632.188 620.203C632.188 613.584 626.822 608.219 620.203 608.219C613.584 608.219 608.219 613.584 608.219 620.203C608.219 626.822 613.584 632.188 620.203 632.188Z" fill="#B2DFDB"/>
<path d="M476.391 104.875H452.422V128.844H476.391V104.875Z" fill="#F44336"/>
<path d="M440.438 512.344H368.531V536.312H440.438V512.344Z" fill="#B2DFDB"/>
<path d="M428.453 56.9375H404.484V80.9062H428.453V56.9375Z" fill="#F44336"/>
<path d="M476.391 56.9375H452.422V80.9062H476.391V56.9375Z" fill="#FF9800"/>
<path d="M284.641 56.9375H260.672V80.9062H284.641V56.9375Z" fill="#FF9800"/>
<path d="M140.828 104.875H116.859V128.844H140.828V104.875Z" fill="#FF9800"/>
<path d="M188.766 104.875H164.797V128.844H188.766V104.875Z" fill="#F44336"/>
<path d="M188.766 56.9375H164.797V80.9062H188.766V56.9375Z" fill="#FF5722"/>
<path d="M236.703 104.875H212.734V128.844H236.703V104.875Z" fill="#FFC107"/>
<path d="M236.703 56.9375H212.734V80.9062H236.703V56.9375Z" fill="#F44336"/>
<path d="M332.578 9H68.9219V176.781H332.578V9ZM308.609 152.812H92.8906V32.9688H308.609V152.812Z" fill="#006064"/>
<path d="M44.9531 9H9V176.781H44.9531V9Z" fill="#006064"/>
<path d="M140.828 56.9375H116.859V80.9062H140.828V56.9375Z" fill="#FFC107"/>
<path d="M620.203 536.312C626.822 536.312 632.188 530.947 632.188 524.328C632.188 517.709 626.822 512.344 620.203 512.344C613.584 512.344 608.219 517.709 608.219 524.328C608.219 530.947 613.584 536.312 620.203 536.312Z" fill="#B2DFDB"/>
<path d="M392.5 608.219H368.531V632.188H392.5V608.219Z" fill="#FFC107"/>
<path d="M488.375 608.219H464.406V632.188H488.375V608.219Z" fill="#FF5722"/>
<path d="M68.9219 392.5H75.9447L144.34 324.105L161.285 341.051L109.837 392.5H236.703C239.882 392.5 242.93 391.237 245.177 388.99C247.425 386.742 248.688 383.694 248.688 380.516V313.571L197.239 365.02L180.293 348.074L248.688 279.679V260.672C248.688 257.493 247.425 254.445 245.177 252.198C242.93 249.95 239.882 248.688 236.703 248.688H193.727L113.348 329.067L96.402 312.121L159.835 248.688H68.9219C65.7434 248.688 62.6952 249.95 60.4476 252.198C58.2001 254.445 56.9375 257.493 56.9375 260.672V380.516C56.9375 383.694 58.2001 386.742 60.4476 388.99C62.6952 391.237 65.7434 392.5 68.9219 392.5ZM180.293 288.152L197.239 305.098L173.27 329.067L156.324 312.121L180.293 288.152Z" fill="#4DB6AC"/>
<path d="M452.422 392.5H495.398L575.777 312.121L592.723 329.067L529.29 392.5H620.203C623.382 392.5 626.43 391.237 628.677 388.99C630.925 386.742 632.188 383.694 632.188 380.516V260.672C632.188 257.493 630.925 254.445 628.677 252.198C626.43 249.95 623.382 248.688 620.203 248.688H613.18L532.801 329.067L515.855 312.121L579.288 248.688H452.422C449.243 248.688 446.195 249.95 443.948 252.198C441.7 254.445 440.438 257.493 440.438 260.672V380.516C440.438 383.694 441.7 386.742 443.948 388.99C446.195 391.237 449.243 392.5 452.422 392.5ZM503.871 324.105L520.817 341.051L496.848 365.02L479.902 348.074L503.871 324.105Z" fill="#4DB6AC"/>
<path d="M9 680.125H680.125V464.406H9V680.125ZM620.203 488.375C627.314 488.375 634.265 490.484 640.178 494.434C646.09 498.385 650.698 504 653.419 510.569C656.141 517.139 656.853 524.368 655.465 531.342C654.078 538.316 650.654 544.723 645.626 549.751C640.598 554.779 634.191 558.203 627.217 559.59C620.243 560.978 613.014 560.266 606.444 557.544C599.875 554.823 594.26 550.215 590.309 544.303C586.359 538.39 584.25 531.439 584.25 524.328C584.25 514.793 588.038 505.648 594.78 498.905C601.523 492.163 610.668 488.375 620.203 488.375ZM620.203 584.25C627.314 584.25 634.265 586.359 640.178 590.309C646.09 594.26 650.698 599.875 653.419 606.444C656.141 613.014 656.853 620.243 655.465 627.217C654.078 634.191 650.654 640.598 645.626 645.626C640.598 650.654 634.191 654.078 627.217 655.465C620.243 656.853 613.014 656.141 606.444 653.419C599.875 650.698 594.26 646.09 590.309 640.178C586.359 634.265 584.25 627.314 584.25 620.203C584.25 610.668 588.038 601.523 594.78 594.78C601.523 588.038 610.668 584.25 620.203 584.25ZM536.312 488.375H560.281V512.344H536.312V488.375ZM536.312 536.312H560.281V560.281H536.312V536.312ZM488.375 488.375H512.344V512.344H488.375V488.375ZM488.375 536.312H512.344V560.281H488.375V536.312ZM344.562 488.375H464.406V560.281H344.562V488.375ZM344.562 584.25H560.281V656.156H344.562V584.25ZM32.9688 488.375H320.594V656.156H32.9688V488.375Z" fill="#006064"/>
<path d="M680.125 9H644.172V176.781H680.125V9Z" fill="#006064"/>
<path d="M9 440.438H680.125V200.75H9V440.438ZM416.469 260.672C416.469 251.137 420.257 241.992 426.999 235.249C433.742 228.507 442.887 224.719 452.422 224.719H620.203C629.738 224.719 638.883 228.507 645.626 235.249C652.368 241.992 656.156 251.137 656.156 260.672V380.516C656.156 390.051 652.368 399.196 645.626 405.938C638.883 412.681 629.738 416.469 620.203 416.469H452.422C442.887 416.469 433.742 412.681 426.999 405.938C420.257 399.196 416.469 390.051 416.469 380.516V260.672ZM356.547 260.672C356.548 257.494 357.811 254.446 360.058 252.199L384.027 228.23L400.973 245.176L380.516 265.633V375.554L400.973 396.011L384.027 412.957L360.058 388.989C357.811 386.742 356.548 383.694 356.547 380.516V260.672ZM288.152 245.176L305.098 228.23L329.067 252.199C331.314 254.446 332.577 257.494 332.578 260.672V380.516C332.577 383.694 331.314 386.742 329.067 388.989L305.098 412.957L288.152 396.011L308.609 375.554V265.633L288.152 245.176ZM32.9688 260.672C32.9688 251.137 36.7567 241.992 43.4992 235.249C50.2417 228.507 59.3865 224.719 68.9219 224.719H236.703C246.238 224.719 255.383 228.507 262.126 235.249C268.868 241.992 272.656 251.137 272.656 260.672V380.516C272.656 390.051 268.868 399.196 262.126 405.938C255.383 412.681 246.238 416.469 236.703 416.469H68.9219C59.3865 416.469 50.2417 412.681 43.4992 405.938C36.7567 399.196 32.9688 390.051 32.9688 380.516V260.672Z" fill="#006064"/>
<path d="M440.438 608.219H416.469V632.188H440.438V608.219Z" fill="#FF9800"/>
<path d="M572.266 56.9375H548.297V80.9062H572.266V56.9375Z" fill="#FFC107"/>
<path d="M56.9375 632.188H296.625V512.344H56.9375V632.188ZM212.734 584.25H248.688V560.281H272.656V608.219H212.734V584.25ZM80.9062 536.312H164.797V560.281H104.875V608.219H80.9062V536.312Z" fill="#4DB6AC"/>
<path d="M524.328 56.9375H500.359V80.9062H524.328V56.9375Z" fill="#FF5722"/>
<path d="M524.328 104.875H500.359V128.844H524.328V104.875Z" fill="#FF9800"/>
<path d="M536.312 608.219H512.344V632.188H536.312V608.219Z" fill="#F44336"/>
<path d="M572.266 104.875H548.297V128.844H572.266V104.875Z" fill="#FF5722"/>
<path d="M284.641 104.875H260.672V128.844H284.641V104.875Z" fill="#FF5722"/>
</svg>
