<svg height='100px' width='100px'  fill="#000000" xmlns="http://www.w3.org/2000/svg" data-name="Layer 3" viewBox="0 0 64 64" x="0px" y="0px">
    <polygon points="23.522 23.999 21 23.999 21 27 22.322 26.999 23.522 23.999"></polygon>
    <path d="M24.677,29H43a1,1,0,0,0,1-1V20a1,1,0,0,0-1-1H27.677L24.048,28.07a.667.667,0,0,0-.048.251A.677.677,0,0,0,24.677,29ZM40,20a3,3,0,1,1-3,3A3,3,0,0,1,40,20Z"></path>
    <path d="M43,44a1,1,0,1,0,1,1A1,1,0,0,0,43,44Z"></path>
    <path d="M9,39.309V42h2V40.72l-1.537-.845A.993.993,0,0,1,9,39.309Z"></path>
    <path d="M19,24H17a1,1,0,0,0-1,1v3.079a11.916,11.916,0,0,1,3-.906Z"></path>
    <rect x="3" y="26.999" width="1" height="17.999"></rect>
    <rect x="6" y="26.999" width="1" height="17.999"></rect>
    <path d="M13,47a3,3,0,0,0,3,3h6.342a2.976,2.976,0,0,0,2.122-.878l.642-.642L13,41.82Z"></path>
    <path d="M9,32V37.92A11.909,11.909,0,0,1,11.219,32Z"></path>
    <path d="M42,34a2,2,0,1,0,2,2A2,2,0,0,0,42,34Zm1,3H41V35h2Z"></path>
    <path d="M38,16a3.492,3.492,0,0,0-2.57,1h5.14A3.492,3.492,0,0,0,38,16Z"></path>
    <path d="M30,11a3,3,0,0,1,3-3h1V6H32a4,4,0,0,0-4,4v7h2Z"></path>
    <path d="M52,40a5.005,5.005,0,0,1-5-5V29H45.815A3,3,0,0,1,43,31H24.677A2.673,2.673,0,0,1,22.1,29H20.945a10.013,10.013,0,0,0-9.984,9.416l17.665,9.716A7.02,7.02,0,0,0,32,49H42V47.814a3,3,0,1,1,2,0h0V49h7a10.014,10.014,0,0,0,9.949-9ZM22,40a4,4,0,1,1,4-4A4,4,0,0,1,22,40Zm10,0a4,4,0,1,1,4-4A4,4,0,0,1,32,40Zm10,0a4,4,0,1,1,4-4A4,4,0,0,1,42,40Z"></path>
    <path d="M32,34a2,2,0,1,0,2,2A2,2,0,0,0,32,34Zm1,3H31V35h2Z"></path>
    <path d="M40,24a1,1,0,1,0-1-1A1,1,0,0,0,40,24Z"></path>
    <path d="M22,34a2,2,0,1,0,2,2A2,2,0,0,0,22,34Zm1,3H21V35h2Z"></path>
    <path d="M52,38h5.92A7,7,0,0,0,51,32V30a9.009,9.009,0,0,1,8.94,8h1.009A10.014,10.014,0,0,0,51,29H49v6A3,3,0,0,0,52,38Z"></path>
    <path d="M55,54a2,2,0,0,0,0,4h2V54H55Z"></path>
    <path d="M43,55a1,1,0,1,0,1,1A1,1,0,0,0,43,55Z"></path>
    <path d="M42,53.183a2.809,2.809,0,0,1,2,0V51H42Z"></path>
    <path d="M51.141,55H45.815a2.793,2.793,0,0,1,0,2l5.326,0a3.617,3.617,0,0,1,0-2Z"></path>
    <polygon points="58.999 52.999 59 53 59 54.998 61 54.998 61 52.999 58.999 52.999"></polygon>
    <rect x="59" y="56.999" width="2" height="1.999"></rect>
</svg>