<svg width="210" height="210" viewBox="0 0 210 210" fill="none" xmlns="http://www.w3.org/2000/svg">
<path d="M75.7655 75.0655H67.069V85.4138L71.6276 85.4103L75.7655 75.0655Z" fill="#18191A"/>
<path d="M79.7483 92.3103H142.931C143.846 92.3103 144.723 91.947 145.369 91.3004C146.016 90.6537 146.379 89.7766 146.379 88.8621V61.2759C146.379 60.3613 146.016 59.4842 145.369 58.8375C144.723 58.1909 143.846 57.8276 142.931 57.8276H90.0931L77.5793 89.1034C77.4689 89.3786 77.4127 89.6725 77.4138 89.969C77.4129 90.2761 77.4726 90.5804 77.5895 90.8644C77.7064 91.1485 77.8782 91.4066 78.0951 91.6241C78.312 91.8416 78.5696 92.0142 78.8533 92.132C79.137 92.2497 79.4411 92.3103 79.7483 92.3103V92.3103ZM132.586 61.2759C134.632 61.2759 136.632 61.8826 138.333 63.0193C140.035 64.156 141.361 65.7716 142.144 67.6619C142.927 69.5522 143.131 71.6322 142.732 73.6389C142.333 75.6456 141.348 77.4888 139.901 78.9356C138.454 80.3823 136.611 81.3676 134.604 81.7667C132.598 82.1659 130.518 81.961 128.627 81.1781C126.737 80.3951 125.122 79.0692 123.985 77.368C122.848 75.6668 122.241 73.6667 122.241 71.6207C122.241 68.8771 123.331 66.2458 125.271 64.3058C127.211 62.3657 129.843 61.2759 132.586 61.2759Z" fill="#FF9801"/>
<path d="M142.931 144.034C142.249 144.034 141.582 144.237 141.015 144.616C140.448 144.995 140.006 145.533 139.745 146.163C139.484 146.793 139.416 147.487 139.549 148.155C139.682 148.824 140.01 149.439 140.493 149.921C140.975 150.403 141.589 150.732 142.258 150.865C142.927 150.998 143.621 150.93 144.251 150.669C144.881 150.408 145.419 149.966 145.798 149.398C146.177 148.831 146.379 148.165 146.379 147.483C146.379 146.568 146.016 145.691 145.369 145.044C144.723 144.398 143.846 144.034 142.931 144.034Z" fill="#18191A"/>
<path d="M25.6897 127.859V137.138H32.5862V132.724L27.2862 129.81C26.5251 129.387 25.9542 128.689 25.6897 127.859V127.859Z" fill="#18191A"/>
<path d="M60.1724 75.069H53.2759C52.3613 75.069 51.4842 75.4323 50.8375 76.0789C50.1909 76.7256 49.8276 77.6027 49.8276 78.5172V89.1345C53.1233 87.6422 56.6016 86.5918 60.1724 86.0104V75.069Z" fill="#18191A"/>
<path d="M8.44828 85.4103H5V147.476H8.44828V85.4103Z" fill="#18191A"/>
<path d="M18.7931 85.4103H15.3448V147.476H18.7931V85.4103Z" fill="#18191A"/>
<path d="M39.4828 154.379C39.4828 157.123 40.5727 159.754 42.5127 161.694C44.4527 163.634 47.084 164.724 49.8276 164.724H71.6965C73.0559 164.729 74.4028 164.464 75.659 163.945C76.9151 163.425 78.0555 162.661 79.0138 161.697L81.2276 159.483L39.4828 136.517V154.379Z" fill="#FF9801"/>
<path d="M25.6897 102.655V123.069C26.3545 115.699 28.9982 108.646 33.3414 102.655H25.6897Z" fill="#18191A"/>
<path d="M139.483 109.552C138.119 109.552 136.785 109.956 135.651 110.714C134.517 111.472 133.633 112.549 133.111 113.809C132.589 115.069 132.453 116.456 132.719 117.794C132.985 119.132 133.642 120.36 134.606 121.325C135.571 122.289 136.799 122.946 138.137 123.212C139.475 123.478 140.862 123.342 142.122 122.82C143.382 122.298 144.459 121.414 145.217 120.28C145.975 119.146 146.379 117.812 146.379 116.448C146.379 114.619 145.653 112.865 144.359 111.572C143.066 110.278 141.312 109.552 139.483 109.552ZM142.931 119.897H136.034V113H142.931V119.897Z" fill="#18191A"/>
<path d="M125.69 47.4828C124.056 47.4259 122.427 47.7022 120.904 48.2951C119.38 48.8879 117.993 49.7848 116.828 50.9311H134.552C133.386 49.7848 131.999 48.8879 130.475 48.2951C128.952 47.7022 127.324 47.4259 125.69 47.4828V47.4828Z" fill="#18191A"/>
<path d="M98.1034 30.2414C98.1034 27.4978 99.1933 24.8665 101.133 22.9265C103.073 20.9864 105.705 19.8966 108.448 19.8966H111.897V13H105C101.342 13 97.8335 14.4532 95.2468 17.0399C92.6601 19.6266 91.2069 23.1349 91.2069 26.7931V50.931H98.1034V30.2414Z" fill="#18191A"/>
<path d="M173.966 130.241C169.394 130.237 165.011 128.419 161.779 125.186C158.547 121.954 156.729 117.571 156.724 113V92.3103H152.638C151.927 94.3198 150.614 96.0608 148.876 97.2952C147.139 98.5297 145.062 99.1973 142.931 99.2069H79.7483C77.7136 99.1994 75.7386 98.5188 74.1312 97.2713C72.5238 96.0238 71.3743 94.2795 70.8621 92.3103H66.8793C58.0851 92.3202 49.626 95.6853 43.2282 101.719C36.8304 107.753 32.9761 116.001 32.4517 124.779L93.3655 158.283C96.9306 160.242 100.932 161.272 105 161.276H139.483V157.186C137.182 156.373 135.243 154.772 134.008 152.667C132.773 150.562 132.323 148.089 132.735 145.684C133.148 143.279 134.397 141.097 136.263 139.524C138.129 137.951 140.491 137.088 142.931 137.088C145.371 137.088 147.733 137.951 149.599 139.524C151.465 141.097 152.714 143.279 153.127 145.684C153.54 148.089 153.089 150.562 151.854 152.667C150.619 154.772 148.68 156.373 146.379 157.186V161.276H170.517C179.062 161.264 187.299 158.085 193.636 152.353C199.973 146.62 203.959 138.742 204.824 130.241H173.966ZM70.5172 130.241C67.7892 130.241 65.1225 129.432 62.8542 127.917C60.5859 126.401 58.818 124.247 57.7741 121.727C56.7301 119.206 56.457 116.433 56.9892 113.757C57.5214 111.082 58.835 108.624 60.764 106.695C62.693 104.766 65.1507 103.452 67.8263 102.92C70.5019 102.388 73.2753 102.661 75.7956 103.705C78.316 104.749 80.4702 106.517 81.9858 108.785C83.5014 111.053 84.3103 113.72 84.3103 116.448C84.3103 120.106 82.8571 123.615 80.2704 126.201C77.6837 128.788 74.1754 130.241 70.5172 130.241ZM105 130.241C102.272 130.241 99.6052 129.432 97.337 127.917C95.0687 126.401 93.3008 124.247 92.2568 121.727C91.2129 119.206 90.9397 116.433 91.4719 113.757C92.0041 111.082 93.3178 108.624 95.2468 106.695C97.1758 104.766 99.6335 103.452 102.309 102.92C104.985 102.388 107.758 102.661 110.278 103.705C112.799 104.749 114.953 106.517 116.469 108.785C117.984 111.053 118.793 113.72 118.793 116.448C118.793 120.106 117.34 123.615 114.753 126.201C112.166 128.788 108.658 130.241 105 130.241V130.241ZM139.483 130.241C136.755 130.241 134.088 129.432 131.82 127.917C129.551 126.401 127.784 124.247 126.74 121.727C125.696 119.206 125.422 116.433 125.955 113.757C126.487 111.082 127.801 108.624 129.73 106.695C131.659 104.766 134.116 103.452 136.792 102.92C139.467 102.388 142.241 102.661 144.761 103.705C147.281 104.749 149.436 106.517 150.951 108.785C152.467 111.053 153.276 113.72 153.276 116.448C153.276 120.106 151.823 123.615 149.236 126.201C146.649 128.788 143.141 130.241 139.483 130.241Z" fill="#FFDC00"/>
<path d="M105 109.552C103.636 109.552 102.303 109.956 101.168 110.714C100.034 111.472 99.1504 112.549 98.6284 113.809C98.1064 115.069 97.9699 116.456 98.236 117.794C98.5021 119.132 99.1589 120.36 100.123 121.325C101.088 122.289 102.317 122.946 103.655 123.212C104.992 123.478 106.379 123.342 107.639 122.82C108.899 122.298 109.976 121.414 110.734 120.28C111.492 119.146 111.897 117.812 111.897 116.448C111.897 114.619 111.17 112.865 109.877 111.572C108.583 110.278 106.829 109.552 105 109.552ZM108.448 119.897H101.552V113H108.448V119.897Z" fill="#18191A"/>
<path d="M132.586 75.069C133.268 75.069 133.935 74.8667 134.502 74.4878C135.069 74.1089 135.511 73.5704 135.772 72.9403C136.033 72.3102 136.101 71.6169 135.968 70.948C135.835 70.2791 135.507 69.6647 135.025 69.1824C134.542 68.7002 133.928 68.3717 133.259 68.2387C132.59 68.1056 131.897 68.1739 131.267 68.4349C130.637 68.6959 130.098 69.1379 129.719 69.7049C129.34 70.272 129.138 70.9387 129.138 71.6207C129.138 72.5352 129.501 73.4123 130.148 74.059C130.795 74.7057 131.672 75.069 132.586 75.069Z" fill="#18191A"/>
<path d="M70.5173 109.552C69.1532 109.552 67.8199 109.956 66.6857 110.714C65.5516 111.472 64.6677 112.549 64.1457 113.809C63.6237 115.069 63.4871 116.456 63.7532 117.794C64.0193 119.132 64.6762 120.36 65.6407 121.325C66.6052 122.289 67.834 122.946 69.1718 123.212C70.5096 123.478 71.8963 123.342 73.1565 122.82C74.4166 122.298 75.4937 121.414 76.2515 120.28C77.0093 119.146 77.4138 117.812 77.4138 116.448C77.4138 114.619 76.6872 112.865 75.3938 111.572C74.1005 110.278 72.3463 109.552 70.5173 109.552ZM73.9655 119.897H67.069V113H73.9655V119.897Z" fill="#18191A"/>
<path d="M173.965 123.345H194.379C193.551 117.605 190.683 112.355 186.302 108.556C181.92 104.757 176.317 102.662 170.517 102.655V95.7586C178.147 95.769 185.505 98.5866 191.191 103.674C196.876 108.762 200.49 115.763 201.345 123.345H204.824C203.959 114.844 199.973 106.966 193.636 101.233C187.299 95.5011 179.062 92.3219 170.517 92.3103H163.621V113C163.621 115.744 164.711 118.375 166.651 120.315C168.591 122.255 171.222 123.345 173.965 123.345Z" fill="#02A9F4"/>
<path d="M184.31 178.517C182.481 178.517 180.727 179.244 179.434 180.537C178.14 181.831 177.414 183.585 177.414 185.414C177.414 187.243 178.14 188.997 179.434 190.29C180.727 191.584 182.481 192.31 184.31 192.31H191.207V178.517H184.31Z" fill="#18191A"/>
<path d="M142.931 181.965C142.249 181.965 141.582 182.168 141.015 182.547C140.448 182.926 140.006 183.464 139.745 184.094C139.484 184.724 139.416 185.418 139.549 186.087C139.682 186.755 140.01 187.37 140.493 187.852C140.975 188.334 141.589 188.663 142.258 188.796C142.927 188.929 143.621 188.861 144.251 188.6C144.881 188.339 145.419 187.897 145.798 187.33C146.177 186.762 146.379 186.096 146.379 185.414C146.379 184.499 146.016 183.622 145.369 182.975C144.723 182.329 143.846 181.965 142.931 181.965Z" fill="#18191A"/>
<path d="M139.483 175.7C141.704 174.854 144.158 174.854 146.379 175.7V168.172H139.483V175.7Z" fill="#18191A"/>
<path d="M171.003 181.965H152.638C153.489 184.186 153.489 186.642 152.638 188.862H171.003C170.355 186.609 170.355 184.219 171.003 181.965Z" fill="#18191A"/>
<path d="M198.1 175.066L198.103 175.069V181.959H205V175.066H198.1Z" fill="#18191A"/>
<path d="M205 188.859H198.103V195.752H205V188.859Z" fill="#18191A"/>
</svg>
